<?xml version="1.0" encoding="UTF-8"?>
<svg width="16px" height="16px" viewBox="0 0 16 16" version="1.1" xmlns="http://www.w3.org/2000/svg" xmlns:xlink="http://www.w3.org/1999/xlink">
    <title>Group 11</title>
    <defs>
        <polygon id="path-1" points="0.8513 0.5202 13.2943 0.5202 13.2943 7 0.8513 7"></polygon>
        <polygon id="path-3" points="0.8513 0 13.3533 0 13.3533 6.4798 0.8513 6.4798"></polygon>
    </defs>
    <g id="00_Login" stroke="none" stroke-width="1" fill="none" fill-rule="evenodd">
        <g id="01_N_Asset" transform="translate(-18.000000, -1803.000000)">
            <g id="Group-11" transform="translate(18.000000, 1803.000000)">
                <path d="M15.68,8.1818 C15.68,7.6148 15.629,7.0688 15.534,6.5458 L8,6.5458 L8,9.6398 L12.305,9.6398 C12.12,10.6398 11.556,11.4878 10.709,12.0548 L10.709,14.0618 L13.294,14.0618 C14.807,12.6688 15.68,10.6188 15.68,8.1818" id="Fill-1" fill="#3E82F1"></path>
                <g id="Group-5" transform="translate(0.000000, 9.000000)">
                    <mask id="mask-2" fill="white">
                        <use xlink:href="#path-1"></use>
                    </mask>
                    <g id="Clip-4"></g>
                    <path d="M8.0003,7.0002 C10.1603,7.0002 11.9713,6.2842 13.2943,5.0622 L10.7093,3.0542 C9.9923,3.5342 9.0763,3.8182 8.0003,3.8182 C5.9163,3.8182 4.1523,2.4112 3.5233,0.5202 L0.8513,0.5202 L0.8513,2.5932 C2.1673,5.2072 4.8723,7.0002 8.0003,7.0002" id="Fill-3" fill="#32A753" mask="url(#mask-2)"></path>
                </g>
                <path d="M3.5237,9.5202 C3.3637,9.0402 3.2727,8.5272 3.2727,8.0002 C3.2727,7.4732 3.3637,6.9602 3.5237,6.4802 L3.5237,4.4072 L0.8507,4.4072 C0.3087,5.4872 0.0007,6.7092 0.0007,8.0002 C0.0007,9.2912 0.3087,10.5132 0.8507,11.5932 L3.5237,9.5202 Z" id="Fill-6" fill="#F9BB00"></path>
                <g id="Group-10">
                    <mask id="mask-4" fill="white">
                        <use xlink:href="#path-3"></use>
                    </mask>
                    <g id="Clip-9"></g>
                    <path d="M8.0003,3.1818 C9.1743,3.1818 10.2293,3.5858 11.0583,4.3778 L13.3533,2.0838 C11.9673,0.7928 10.1563,-0.0002 8.0003,-0.0002 C4.8723,-0.0002 2.1673,1.7928 0.8513,4.4078 L3.5233,6.4798 C4.1523,4.5888 5.9163,3.1818 8.0003,3.1818" id="Fill-8" fill="#E74133" mask="url(#mask-4)"></path>
                </g>
            </g>
        </g>
    </g>
</svg>